# This file uses centimeters as units for non-parametric coordinates.

mtllib Liquido.mtl
g default
v 2.269112 0.150054 -0.126339
v 2.269112 7.571741 -0.126339
v 6.058626 0.386158 -1.357626
v 5.992038 0.219207 -1.335990
v 5.831279 0.150054 -1.283757
v 5.492665 0.386158 -2.468387
v 5.436022 0.219207 -2.427233
v 5.299272 0.150054 -2.327879
v 4.611160 0.386158 -3.349892
v 4.570007 0.219207 -3.293249
v 4.470653 0.150054 -3.156499
v 3.500400 0.386158 -3.915853
v 3.478764 0.219207 -3.849264
v 3.426530 0.150054 -3.688506
v 2.269112 0.386158 -4.110869
v 2.269112 0.219207 -4.040854
v 2.269112 0.150054 -3.871822
v 1.037824 0.386158 -3.915853
v 1.059460 0.219207 -3.849264
v 1.111693 0.150054 -3.688505
v -0.072936 0.386158 -3.349891
v -0.031782 0.219207 -3.293248
v 0.067572 0.150054 -3.156499
v -0.954441 0.386158 -2.468386
v -0.897797 0.219207 -2.427233
v -0.761047 0.150054 -2.327879
v -1.520401 0.386158 -1.357626
v -1.453813 0.219207 -1.335990
v -1.293054 0.150054 -1.283756
v -1.715418 0.386158 -0.126339
v -1.645403 0.219207 -0.126339
v -1.476371 0.150054 -0.126339
v -1.520401 0.386158 1.104949
v -1.453813 0.219207 1.083313
v -1.293054 0.150054 1.031079
v -0.954440 0.386158 2.215708
v -0.897797 0.219207 2.174555
v -0.761047 0.150054 2.075200
v -0.072936 0.386158 3.097213
v -0.031782 0.219207 3.040570
v 0.067572 0.150054 2.903820
v 1.037824 0.386158 3.663173
v 1.059460 0.219207 3.596585
v 1.111694 0.150054 3.435826
v 2.269112 0.386158 3.858190
v 2.269112 0.219207 3.788175
v 2.269112 0.150054 3.619143
v 3.500399 0.386158 3.663173
v 3.478763 0.219207 3.596585
v 3.426529 0.150054 3.435826
v 4.611159 0.386158 3.097212
v 4.570005 0.219207 3.040569
v 4.470651 0.150054 2.903820
v 5.492663 0.386158 2.215708
v 5.436020 0.219207 2.174555
v 5.299270 0.150054 2.075200
v 6.058623 0.386158 1.104948
v 5.992035 0.219207 1.083313
v 5.831276 0.150054 1.031079
v 6.253640 0.386158 -0.126339
v 6.183624 0.219207 -0.126339
v 6.014593 0.150054 -0.126339
v 6.058626 7.335636 -1.357626
v 5.992038 7.502588 -1.335990
v 5.831279 7.571741 -1.283757
v 5.492665 7.335636 -2.468387
v 5.436022 7.502588 -2.427233
v 5.299272 7.571741 -2.327879
v 4.611160 7.335636 -3.349892
v 4.570007 7.502588 -3.293249
v 4.470653 7.571741 -3.156499
v 3.500400 7.335636 -3.915853
v 3.478764 7.502588 -3.849264
v 3.426530 7.571741 -3.688506
v 2.269112 7.335636 -4.110869
v 2.269112 7.502588 -4.040854
v 2.269112 7.571741 -3.871822
v 1.037824 7.335636 -3.915853
v 1.059460 7.502588 -3.849264
v 1.111693 7.571741 -3.688505
v -0.072936 7.335636 -3.349891
v -0.031782 7.502588 -3.293248
v 0.067572 7.571741 -3.156499
v -0.954441 7.335636 -2.468386
v -0.897797 7.502588 -2.427233
v -0.761047 7.571741 -2.327879
v -1.520401 7.335636 -1.357626
v -1.453813 7.502588 -1.335990
v -1.293054 7.571741 -1.283756
v -1.715418 7.335636 -0.126339
v -1.645403 7.502588 -0.126339
v -1.476371 7.571741 -0.126339
v -1.520401 7.335636 1.104949
v -1.453813 7.502588 1.083313
v -1.293054 7.571741 1.031079
v -0.954440 7.335636 2.215708
v -0.897797 7.502588 2.174555
v -0.761047 7.571741 2.075200
v -0.072936 7.335636 3.097213
v -0.031782 7.502588 3.040570
v 0.067572 7.571741 2.903820
v 1.037824 7.335636 3.663173
v 1.059460 7.502588 3.596585
v 1.111694 7.571741 3.435826
v 2.269112 7.335636 3.858190
v 2.269112 7.502588 3.788175
v 2.269112 7.571741 3.619143
v 3.500399 7.335636 3.663173
v 3.478763 7.502588 3.596585
v 3.426529 7.571741 3.435826
v 4.611159 7.335636 3.097212
v 4.570005 7.502588 3.040569
v 4.470651 7.571741 2.903820
v 5.492663 7.335636 2.215708
v 5.436020 7.502588 2.174555
v 5.299270 7.571741 2.075200
v 6.058623 7.335636 1.104948
v 5.992035 7.502588 1.083313
v 5.831276 7.571741 1.031079
v 6.253640 7.335636 -0.126339
v 6.183624 7.502588 -0.126339
v 6.014593 7.571741 -0.126339
vt 0.387500 0.323638
vt 0.375000 0.677302
vt 0.400000 0.323638
vt 0.387500 0.677302
vt 0.412500 0.323638
vt 0.400000 0.677302
vt 0.425000 0.323638
vt 0.412500 0.677302
vt 0.437500 0.323638
vt 0.425000 0.677302
vt 0.450000 0.323638
vt 0.437500 0.677302
vt 0.462500 0.323638
vt 0.450000 0.677302
vt 0.475000 0.323638
vt 0.462500 0.677302
vt 0.487500 0.323638
vt 0.475000 0.677302
vt 0.500000 0.323638
vt 0.487500 0.677302
vt 0.512500 0.323638
vt 0.500000 0.677302
vt 0.525000 0.323638
vt 0.512500 0.677302
vt 0.537500 0.323638
vt 0.525000 0.677302
vt 0.550000 0.323638
vt 0.537500 0.677302
vt 0.562500 0.323638
vt 0.550000 0.677302
vt 0.575000 0.323638
vt 0.562500 0.677302
vt 0.587500 0.323638
vt 0.575000 0.677302
vt 0.600000 0.323638
vt 0.587500 0.677302
vt 0.612500 0.323638
vt 0.600000 0.677302
vt 0.625000 0.323638
vt 0.612500 0.677302
vt 0.639687 0.110488
vt 0.618825 0.069543
vt 0.586332 0.037050
vt 0.545387 0.016188
vt 0.500000 0.008999
vt 0.454613 0.016188
vt 0.413668 0.037050
vt 0.381175 0.069543
vt 0.360313 0.110488
vt 0.353124 0.155875
vt 0.360313 0.201262
vt 0.381175 0.242207
vt 0.413668 0.274700
vt 0.454613 0.295563
vt 0.500000 0.302751
vt 0.545387 0.295562
vt 0.586332 0.274700
vt 0.618825 0.242207
vt 0.639687 0.201262
vt 0.500000 0.150000
vt 0.646876 0.155875
vt 0.618825 0.929707
vt 0.586332 0.962200
vt 0.545387 0.983063
vt 0.500000 0.990251
vt 0.454613 0.983062
vt 0.413668 0.962200
vt 0.381175 0.929707
vt 0.360313 0.888762
vt 0.353124 0.843375
vt 0.360313 0.797988
vt 0.381175 0.757044
vt 0.413668 0.724550
vt 0.454613 0.703688
vt 0.500000 0.696499
vt 0.545387 0.703688
vt 0.586332 0.724550
vt 0.618825 0.757043
vt 0.639687 0.797988
vt 0.646876 0.843375
vt 0.639687 0.888762
vt 0.500000 0.837500
vt 0.375000 0.323638
vt 0.625000 0.677302
vt 0.625000 0.312500
vt 0.648603 0.107966
vt 0.375000 0.312500
vt 0.626409 0.064408
vt 0.387500 0.312500
vt 0.591842 0.029841
vt 0.400000 0.312500
vt 0.548284 0.007647
vt 0.412500 0.312500
vt 0.500000 -0.000000
vt 0.425000 0.312500
vt 0.451716 0.007647
vt 0.437500 0.312500
vt 0.408159 0.029841
vt 0.450000 0.312500
vt 0.373591 0.064409
vt 0.462500 0.312500
vt 0.351397 0.107966
vt 0.475000 0.312500
vt 0.343750 0.156250
vt 0.487500 0.312500
vt 0.351397 0.204534
vt 0.500000 0.312500
vt 0.373591 0.248091
vt 0.512500 0.312500
vt 0.408159 0.282659
vt 0.525000 0.312500
vt 0.451716 0.304853
vt 0.537500 0.312500
vt 0.500000 0.312500
vt 0.550000 0.312500
vt 0.548284 0.304853
vt 0.562500 0.312500
vt 0.591841 0.282659
vt 0.575000 0.312500
vt 0.626409 0.248091
vt 0.587500 0.312500
vt 0.648603 0.204534
vt 0.600000 0.312500
vt 0.656250 0.156250
vt 0.612500 0.312500
vt 0.375000 0.688440
vt 0.648603 0.892034
vt 0.625000 0.688440
vt 0.387500 0.688440
vt 0.626409 0.935591
vt 0.400000 0.688440
vt 0.591841 0.970159
vt 0.412500 0.688440
vt 0.548284 0.992353
vt 0.425000 0.688440
vt 0.500000 1.000000
vt 0.437500 0.688440
vt 0.451716 0.992353
vt 0.450000 0.688440
vt 0.408159 0.970159
vt 0.462500 0.688440
vt 0.373591 0.935591
vt 0.475000 0.688440
vt 0.351397 0.892034
vt 0.487500 0.688440
vt 0.343750 0.843750
vt 0.500000 0.688440
vt 0.351397 0.795466
vt 0.512500 0.688440
vt 0.373591 0.751909
vt 0.525000 0.688440
vt 0.408159 0.717341
vt 0.537500 0.688440
vt 0.451716 0.695147
vt 0.550000 0.688440
vt 0.500000 0.687500
vt 0.562500 0.688440
vt 0.548284 0.695147
vt 0.575000 0.688440
vt 0.591842 0.717341
vt 0.587500 0.688440
vt 0.626409 0.751908
vt 0.600000 0.688440
vt 0.648603 0.795466
vt 0.656250 0.843750
vt 0.612500 0.688440
vn 0.951015 -0.009386 -0.309002
vn 0.808981 -0.009386 -0.587759
vn 0.808981 0.009386 -0.587759
vn 0.951015 0.009386 -0.309002
vn 0.587759 -0.009386 -0.808981
vn 0.587759 0.009386 -0.808981
vn 0.309003 -0.009386 -0.951015
vn 0.309003 0.009386 -0.951015
vn 0.000000 -0.009386 -0.999956
vn 0.000000 0.009386 -0.999956
vn -0.309003 -0.009386 -0.951015
vn -0.309003 0.009386 -0.951015
vn -0.587760 -0.009386 -0.808981
vn -0.587760 0.009386 -0.808981
vn -0.808981 -0.009386 -0.587759
vn -0.808981 0.009386 -0.587759
vn -0.951015 -0.009386 -0.309003
vn -0.951015 0.009386 -0.309003
vn -0.999956 -0.009386 -0.000000
vn -0.999956 0.009386 -0.000000
vn -0.951015 -0.009386 0.309003
vn -0.951015 0.009386 0.309003
vn -0.808981 -0.009386 0.587760
vn -0.808981 0.009386 0.587760
vn -0.587759 -0.009386 0.808981
vn -0.587759 0.009386 0.808981
vn -0.309004 -0.009386 0.951015
vn -0.309004 0.009386 0.951015
vn 0.000000 -0.009386 0.999956
vn 0.000000 0.009386 0.999956
vn 0.309004 -0.009386 0.951015
vn 0.309004 0.009386 0.951015
vn 0.587759 -0.009386 0.808981
vn 0.587759 0.009386 0.808981
vn 0.808981 -0.009386 0.587759
vn 0.808981 0.009386 0.587759
vn 0.951015 -0.009386 0.309003
vn 0.951015 0.009386 0.309003
vn 0.999956 -0.009386 0.000001
vn 0.999956 0.009386 0.000001
vn 0.033318 -0.999152 -0.024207
vn 0.039167 -0.999152 -0.012726
vn 0.000000 -1.000000 0.000000
vn 0.024207 -0.999152 -0.033318
vn 0.012726 -0.999152 -0.039167
vn -0.000000 -0.999152 -0.041183
vn -0.012726 -0.999152 -0.039167
vn -0.024207 -0.999152 -0.033318
vn -0.033318 -0.999152 -0.024207
vn -0.039167 -0.999152 -0.012726
vn -0.041183 -0.999152 0.000000
vn -0.039167 -0.999152 0.012726
vn -0.033318 -0.999152 0.024207
vn -0.024207 -0.999152 0.033318
vn -0.012726 -0.999152 0.039167
vn 0.000000 -0.999152 0.041183
vn 0.012726 -0.999152 0.039167
vn 0.024207 -0.999152 0.033318
vn 0.033318 -0.999152 0.024207
vn 0.039167 -0.999152 0.012726
vn 0.041183 -0.999152 0.000000
vn 0.039167 0.999152 -0.012726
vn 0.033318 0.999152 -0.024207
vn 0.000000 1.000000 -0.000000
vn 0.024207 0.999152 -0.033318
vn 0.012726 0.999152 -0.039167
vn -0.000000 0.999152 -0.041183
vn -0.012726 0.999152 -0.039167
vn -0.024207 0.999152 -0.033318
vn -0.033318 0.999152 -0.024207
vn -0.039167 0.999152 -0.012726
vn -0.041183 0.999152 0.000000
vn -0.039167 0.999152 0.012726
vn -0.033318 0.999152 0.024207
vn -0.024207 0.999152 0.033318
vn -0.012726 0.999152 0.039167
vn -0.000000 0.999152 0.041183
vn 0.012726 0.999152 0.039167
vn 0.024207 0.999152 0.033317
vn 0.033318 0.999152 0.024206
vn 0.039167 0.999152 0.012726
vn 0.041183 0.999152 0.000000
vn 0.877053 -0.386744 -0.284970
vn 0.746066 -0.386742 -0.542048
vn 0.360120 -0.925539 -0.117009
vn 0.306336 -0.925539 -0.222566
vn 0.542048 -0.386743 -0.746066
vn 0.222566 -0.925539 -0.306337
vn 0.284971 -0.386744 -0.877052
vn 0.117010 -0.925539 -0.360120
vn -0.000000 -0.386744 -0.922187
vn -0.000000 -0.925539 -0.378652
vn -0.284971 -0.386744 -0.877052
vn -0.117010 -0.925539 -0.360119
vn -0.542048 -0.386743 -0.746065
vn -0.222567 -0.925539 -0.306336
vn -0.746065 -0.386744 -0.542048
vn -0.306337 -0.925539 -0.222567
vn -0.877052 -0.386744 -0.284971
vn -0.360120 -0.925539 -0.117010
vn -0.922187 -0.386744 -0.000000
vn -0.378652 -0.925539 0.000000
vn -0.877053 -0.386742 0.284972
vn -0.360119 -0.925539 0.117010
vn -0.746066 -0.386742 0.542048
vn -0.306336 -0.925539 0.222566
vn -0.542049 -0.386742 0.746065
vn -0.222566 -0.925539 0.306336
vn -0.284971 -0.386743 0.877052
vn -0.117010 -0.925539 0.360119
vn 0.000000 -0.386744 0.922187
vn -0.000000 -0.925539 0.378652
vn 0.284971 -0.386743 0.877052
vn 0.117010 -0.925539 0.360120
vn 0.542048 -0.386742 0.746066
vn 0.222566 -0.925539 0.306336
vn 0.746066 -0.386741 0.542049
vn 0.306336 -0.925539 0.222565
vn 0.877053 -0.386743 0.284972
vn 0.360119 -0.925539 0.117010
vn 0.922187 -0.386745 0.000001
vn 0.378653 -0.925539 0.000000
vn 0.877053 0.386743 -0.284970
vn 0.922187 0.386743 0.000001
vn 0.360119 0.925539 -0.117009
vn 0.378652 0.925539 0.000000
vn 0.306335 0.925540 -0.222565
vn 0.746066 0.386741 -0.542049
vn 0.222566 0.925539 -0.306336
vn 0.542048 0.386742 -0.746066
vn 0.117010 0.925539 -0.360120
vn 0.284971 0.386743 -0.877052
vn -0.000000 0.925539 -0.378652
vn -0.000000 0.386744 -0.922187
vn -0.117010 0.925539 -0.360119
vn -0.284972 0.386743 -0.877052
vn -0.222566 0.925539 -0.306336
vn -0.542049 0.386742 -0.746066
vn -0.306336 0.925539 -0.222566
vn -0.746066 0.386742 -0.542048
vn -0.360119 0.925539 -0.117010
vn -0.877052 0.386743 -0.284972
vn -0.378651 0.925539 0.000000
vn -0.922188 0.386742 -0.000000
vn -0.360118 0.925540 0.117009
vn -0.877053 0.386741 0.284972
vn -0.306335 0.925540 0.222565
vn -0.746066 0.386740 0.542049
vn -0.222565 0.925539 0.306336
vn -0.542049 0.386741 0.746066
vn -0.117010 0.925539 0.360119
vn -0.284972 0.386742 0.877053
vn -0.000000 0.925539 0.378651
vn -0.000000 0.386743 0.922188
vn 0.117010 0.925539 0.360119
vn 0.284972 0.386742 0.877053
vn 0.222566 0.925540 0.306335
vn 0.542049 0.386741 0.746066
vn 0.306335 0.925540 0.222564
vn 0.746067 0.386740 0.542049
vn 0.360118 0.925540 0.117010
vn 0.877053 0.386741 0.284971
s 1
g Liquido
usemtl initialShadingGroup
f 3/83/1 6/1/2 66/4/3 63/2/4
f 6/1/2 9/3/5 69/6/6 66/4/3
f 9/3/5 12/5/7 72/8/8 69/6/6
f 12/5/7 15/7/9 75/10/10 72/8/8
f 15/7/9 18/9/11 78/12/12 75/10/10
f 18/9/11 21/11/13 81/14/14 78/12/12
f 21/11/13 24/13/15 84/16/16 81/14/14
f 24/13/15 27/15/17 87/18/18 84/16/16
f 27/15/17 30/17/19 90/20/20 87/18/18
f 30/17/19 33/19/21 93/22/22 90/20/20
f 33/19/21 36/21/23 96/24/24 93/22/22
f 36/21/23 39/23/25 99/26/26 96/24/24
f 39/23/25 42/25/27 102/28/28 99/26/26
f 42/25/27 45/27/29 105/30/30 102/28/28
f 45/27/29 48/29/31 108/32/32 105/30/30
f 48/29/31 51/31/33 111/34/34 108/32/32
f 51/31/33 54/33/35 114/36/36 111/34/34
f 54/33/35 57/35/37 117/38/38 114/36/36
f 57/35/37 60/37/39 120/40/40 117/38/38
f 60/37/39 3/39/1 63/84/4 120/40/40
s 2
f 8/42/41 5/41/42 1/60/43
f 11/43/44 8/42/41 1/60/43
f 14/44/45 11/43/44 1/60/43
f 17/45/46 14/44/45 1/60/43
f 20/46/47 17/45/46 1/60/43
f 23/47/48 20/46/47 1/60/43
f 26/48/49 23/47/48 1/60/43
f 29/49/50 26/48/49 1/60/43
f 32/50/51 29/49/50 1/60/43
f 35/51/52 32/50/51 1/60/43
f 38/52/53 35/51/52 1/60/43
f 41/53/54 38/52/53 1/60/43
f 44/54/55 41/53/54 1/60/43
f 47/55/56 44/54/55 1/60/43
f 50/56/57 47/55/56 1/60/43
f 53/57/58 50/56/57 1/60/43
f 56/58/59 53/57/58 1/60/43
f 59/59/60 56/58/59 1/60/43
f 62/61/61 59/59/60 1/60/43
f 5/41/42 62/61/61 1/60/43
s 3
f 65/81/62 68/62/63 2/82/64
f 68/62/63 71/63/65 2/82/64
f 71/63/65 74/64/66 2/82/64
f 74/64/66 77/65/67 2/82/64
f 77/65/67 80/66/68 2/82/64
f 80/66/68 83/67/69 2/82/64
f 83/67/69 86/68/70 2/82/64
f 86/68/70 89/69/71 2/82/64
f 89/69/71 92/70/72 2/82/64
f 92/70/72 95/71/73 2/82/64
f 95/71/73 98/72/74 2/82/64
f 98/72/74 101/73/75 2/82/64
f 101/73/75 104/74/76 2/82/64
f 104/74/76 107/75/77 2/82/64
f 107/75/77 110/76/78 2/82/64
f 110/76/78 113/77/79 2/82/64
f 113/77/79 116/78/80 2/82/64
f 116/78/80 119/79/81 2/82/64
f 119/79/81 122/80/82 2/82/64
f 122/80/82 65/81/62 2/82/64
s 1
f 3/83/1 4/87/83 7/89/84 6/1/2
s 2
f 4/86/85 5/41/42 8/42/41 7/88/86
s 1
f 6/1/2 7/89/84 10/91/87 9/3/5
s 2
f 7/88/86 8/42/41 11/43/44 10/90/88
s 1
f 9/3/5 10/91/87 13/93/89 12/5/7
s 2
f 10/90/88 11/43/44 14/44/45 13/92/90
s 1
f 12/5/7 13/93/89 16/95/91 15/7/9
s 2
f 13/92/90 14/44/45 17/45/46 16/94/92
s 1
f 15/7/9 16/95/91 19/97/93 18/9/11
s 2
f 16/94/92 17/45/46 20/46/47 19/96/94
s 1
f 18/9/11 19/97/93 22/99/95 21/11/13
s 2
f 19/96/94 20/46/47 23/47/48 22/98/96
s 1
f 21/11/13 22/99/95 25/101/97 24/13/15
s 2
f 22/98/96 23/47/48 26/48/49 25/100/98
s 1
f 24/13/15 25/101/97 28/103/99 27/15/17
s 2
f 25/100/98 26/48/49 29/49/50 28/102/100
s 1
f 27/15/17 28/103/99 31/105/101 30/17/19
s 2
f 28/102/100 29/49/50 32/50/51 31/104/102
s 1
f 30/17/19 31/105/101 34/107/103 33/19/21
s 2
f 31/104/102 32/50/51 35/51/52 34/106/104
s 1
f 33/19/21 34/107/103 37/109/105 36/21/23
s 2
f 34/106/104 35/51/52 38/52/53 37/108/106
s 1
f 36/21/23 37/109/105 40/111/107 39/23/25
s 2
f 37/108/106 38/52/53 41/53/54 40/110/108
s 1
f 39/23/25 40/111/107 43/113/109 42/25/27
s 2
f 40/110/108 41/53/54 44/54/55 43/112/110
s 1
f 42/25/27 43/113/109 46/115/111 45/27/29
s 2
f 43/112/110 44/54/55 47/55/56 46/114/112
s 1
f 45/27/29 46/115/111 49/117/113 48/29/31
s 2
f 46/114/112 47/55/56 50/56/57 49/116/114
s 1
f 48/29/31 49/117/113 52/119/115 51/31/33
s 2
f 49/116/114 50/56/57 53/57/58 52/118/116
s 1
f 51/31/33 52/119/115 55/121/117 54/33/35
s 2
f 52/118/116 53/57/58 56/58/59 55/120/118
s 1
f 54/33/35 55/121/117 58/123/119 57/35/37
s 2
f 55/120/118 56/58/59 59/59/60 58/122/120
s 1
f 57/35/37 58/123/119 61/125/121 60/37/39
s 2
f 58/122/120 59/59/60 62/61/61 61/124/122
f 5/41/42 4/86/85 61/124/122 62/61/61
s 1
f 4/85/83 3/39/1 60/37/39 61/125/121
f 63/84/4 64/128/123 121/166/124 120/40/40
s 3
f 64/127/125 65/81/62 122/80/82 121/165/126
f 65/81/62 64/127/125 67/130/127 68/62/63
s 1
f 64/126/123 63/2/4 66/4/3 67/129/128
s 3
f 68/62/63 67/130/127 70/132/129 71/63/65
s 1
f 67/129/128 66/4/3 69/6/6 70/131/130
s 3
f 71/63/65 70/132/129 73/134/131 74/64/66
s 1
f 70/131/130 69/6/6 72/8/8 73/133/132
s 3
f 74/64/66 73/134/131 76/136/133 77/65/67
s 1
f 73/133/132 72/8/8 75/10/10 76/135/134
s 3
f 77/65/67 76/136/133 79/138/135 80/66/68
s 1
f 76/135/134 75/10/10 78/12/12 79/137/136
s 3
f 80/66/68 79/138/135 82/140/137 83/67/69
s 1
f 79/137/136 78/12/12 81/14/14 82/139/138
s 3
f 83/67/69 82/140/137 85/142/139 86/68/70
s 1
f 82/139/138 81/14/14 84/16/16 85/141/140
s 3
f 86/68/70 85/142/139 88/144/141 89/69/71
s 1
f 85/141/140 84/16/16 87/18/18 88/143/142
s 3
f 89/69/71 88/144/141 91/146/143 92/70/72
s 1
f 88/143/142 87/18/18 90/20/20 91/145/144
s 3
f 92/70/72 91/146/143 94/148/145 95/71/73
s 1
f 91/145/144 90/20/20 93/22/22 94/147/146
s 3
f 95/71/73 94/148/145 97/150/147 98/72/74
s 1
f 94/147/146 93/22/22 96/24/24 97/149/148
s 3
f 98/72/74 97/150/147 100/152/149 101/73/75
s 1
f 97/149/148 96/24/24 99/26/26 100/151/150
s 3
f 101/73/75 100/152/149 103/154/151 104/74/76
s 1
f 100/151/150 99/26/26 102/28/28 103/153/152
s 3
f 104/74/76 103/154/151 106/156/153 107/75/77
s 1
f 103/153/152 102/28/28 105/30/30 106/155/154
s 3
f 107/75/77 106/156/153 109/158/155 110/76/78
s 1
f 106/155/154 105/30/30 108/32/32 109/157/156
s 3
f 110/76/78 109/158/155 112/160/157 113/77/79
s 1
f 109/157/156 108/32/32 111/34/34 112/159/158
s 3
f 113/77/79 112/160/157 115/162/159 116/78/80
s 1
f 112/159/158 111/34/34 114/36/36 115/161/160
s 3
f 116/78/80 115/162/159 118/164/161 119/79/81
s 1
f 115/161/160 114/36/36 117/38/38 118/163/162
s 3
f 119/79/81 118/164/161 121/165/126 122/80/82
s 1
f 118/163/162 117/38/38 120/40/40 121/166/124
